<?xml version="1.0" encoding="UTF-8" standalone="no"?>
<!DOCTYPE svg PUBLIC "-//W3C//DTD SVG 1.1//EN" "http://www.w3.org/Graphics/SVG/1.1/DTD/svg11.dtd">
<!-- Created with Vectornator (http://vectornator.io/) -->
<svg height="100%" stroke-miterlimit="10" style="fill-rule:nonzero;clip-rule:evenodd;stroke-linecap:round;stroke-linejoin:round;" version="1.1" viewBox="0 0 850.5 318.938" width="100%" xml:space="preserve" xmlns="http://www.w3.org/2000/svg" xmlns:vectornator="http://vectornator.io" xmlns:xlink="http://www.w3.org/1999/xlink">
<defs/>
<g id="layer1" vectornator:layerName="layer1">
<g opacity="1" vectornator:layerName="g1008">
<g opacity="1" vectornator:layerName="text246">
<path d="M84.04 168.868L84.04 146.776L94.0054 146.776C95.4757 146.776 96.8916 146.913 98.253 147.189C99.6144 147.464 100.812 148.015 101.847 148.84C102.882 149.597 103.699 150.699 104.298 152.144C104.951 153.589 105.278 155.482 105.278 157.822C105.278 160.162 104.951 162.055 104.298 163.5C103.699 164.945 102.882 166.081 101.847 166.907C100.812 167.664 99.6144 168.18 98.253 168.455C96.8916 168.731 95.4757 168.868 94.0054 168.868L84.04 168.868ZM71.2157 134.181L71.2157 207.892L84.04 207.892L84.04 181.463L97.5178 181.463C101.166 181.463 104.27 180.81 106.83 179.502C109.389 178.125 111.459 176.336 113.038 174.134C114.671 171.931 115.842 169.419 116.55 166.597C117.313 163.707 117.694 160.782 117.694 157.822C117.694 154.794 117.313 151.869 116.55 149.047C115.842 146.225 114.671 143.713 113.038 141.511C111.459 139.308 109.389 137.553 106.83 136.246C104.27 134.869 101.166 134.181 97.5178 134.181L71.2157 134.181Z" fill="#000000" fill-rule="nonzero" opacity="1" stroke="none" vectornator:layerName="path"/>
<path d="M133.436 134.181L133.436 207.892L146.26 207.892L146.26 176.095L169.867 176.095L169.867 207.892L182.691 207.892L182.691 134.181L169.867 134.181L169.867 162.468L146.26 162.468L146.26 134.181L133.436 134.181Z" fill="#000000" fill-rule="nonzero" opacity="1" stroke="none" vectornator:layerName="path"/>
<path d="M216.67 179.192L216.67 207.892L229.494 207.892L229.494 179.605L251.141 134.181L236.846 134.181L223.286 163.294L209.645 134.181L195.269 134.181L216.67 179.192Z" fill="#000000" fill-rule="nonzero" opacity="1" stroke="none" vectornator:layerName="path"/>
<path d="M272.519 183.425L260.103 183.425C260.048 187.967 260.702 191.89 262.063 195.194C263.425 198.498 265.249 201.216 267.536 203.35C269.878 205.483 272.546 207.032 275.541 207.995C278.591 209.028 281.722 209.544 284.935 209.544C288.91 209.544 292.395 208.959 295.39 207.789C298.44 206.619 300.972 205.001 302.987 202.937C305.056 200.803 306.608 198.291 307.643 195.4C308.677 192.51 309.195 189.378 309.195 186.006C309.195 181.876 308.487 178.504 307.071 175.889C305.71 173.204 304.076 171.071 302.17 169.488C300.264 167.905 298.331 166.769 296.37 166.081C294.464 165.324 292.967 164.808 291.878 164.533C288.229 163.362 285.261 162.399 282.974 161.642C280.742 160.885 278.972 160.128 277.665 159.371C276.412 158.614 275.568 157.788 275.133 156.893C274.697 155.998 274.479 154.828 274.479 153.383C274.479 151.8 274.751 150.492 275.296 149.46C275.841 148.428 276.521 147.567 277.338 146.879C278.209 146.191 279.162 145.709 280.197 145.434C281.232 145.158 282.266 145.021 283.301 145.021C284.88 145.021 286.323 145.193 287.63 145.537C288.992 145.881 290.19 146.466 291.224 147.292C292.259 148.118 293.076 149.253 293.675 150.699C294.328 152.144 294.709 153.968 294.818 156.17L307.234 156.17C307.234 151.903 306.581 148.29 305.274 145.33C304.021 142.302 302.306 139.824 300.128 137.897C297.95 135.97 295.445 134.594 292.613 133.768C289.836 132.873 286.922 132.426 283.873 132.426C281.259 132.426 278.645 132.873 276.031 133.768C273.417 134.663 271.076 136.039 269.006 137.897C266.937 139.756 265.249 142.096 263.942 144.917C262.689 147.67 262.063 150.94 262.063 154.725C262.063 158.097 262.553 160.988 263.534 163.397C264.568 165.737 265.902 167.698 267.536 169.281C269.17 170.864 271.021 172.172 273.091 173.204C275.16 174.168 277.284 174.994 279.462 175.682C281.586 176.439 283.682 177.127 285.752 177.747C287.821 178.366 289.672 179.089 291.306 179.915C292.94 180.741 294.247 181.773 295.227 183.012C296.261 184.251 296.779 185.868 296.779 187.864C296.779 189.722 296.398 191.271 295.635 192.51C294.873 193.68 293.92 194.609 292.776 195.297C291.633 195.985 290.407 196.467 289.101 196.743C287.794 196.949 286.568 197.052 285.425 197.052C283.737 197.052 282.103 196.811 280.524 196.329C278.945 195.779 277.556 194.987 276.358 193.955C275.214 192.854 274.289 191.443 273.581 189.722C272.873 188.002 272.519 185.903 272.519 183.425Z" fill="#000000" fill-rule="nonzero" opacity="1" stroke="none" vectornator:layerName="path"/>
<path d="M324.403 134.181L324.403 207.892L337.228 207.892L337.228 134.181L324.403 134.181Z" fill="#000000" fill-rule="nonzero" opacity="1" stroke="none" vectornator:layerName="path"/>
<path d="M366.444 171.346C366.444 168.111 366.716 164.98 367.26 161.952C367.859 158.923 368.785 156.239 370.038 153.899C371.29 151.49 372.924 149.598 374.939 148.221C376.954 146.776 379.404 146.053 382.29 146.053C385.176 146.053 387.627 146.776 389.642 148.221C391.657 149.598 393.29 151.49 394.543 153.899C395.795 156.239 396.694 158.923 397.238 161.952C397.837 164.98 398.137 168.111 398.137 171.346C398.137 174.443 397.837 177.472 397.238 180.431C396.694 183.322 395.795 185.937 394.543 188.277C393.29 190.617 391.657 192.51 389.642 193.955C387.627 195.332 385.176 196.02 382.29 196.02C379.404 196.02 376.954 195.332 374.939 193.955C372.924 192.51 371.29 190.617 370.038 188.277C368.785 185.937 367.859 183.322 367.26 180.431C366.716 177.472 366.444 174.443 366.444 171.346ZM353.619 171.346C353.619 176.714 354.273 181.739 355.58 186.419C356.887 191.03 358.765 195.056 361.216 198.498C363.666 201.939 366.661 204.657 370.201 206.653C373.795 208.58 377.825 209.544 382.29 209.544C386.81 209.544 390.84 208.58 394.379 206.653C397.919 204.657 400.914 201.939 403.365 198.498C405.815 195.056 407.694 191.03 409.001 186.419C410.308 181.739 410.961 176.714 410.961 171.346C410.961 165.84 410.308 160.747 409.001 156.067C407.694 151.318 405.815 147.189 403.365 143.679C400.914 140.169 397.919 137.416 394.379 135.42C390.84 133.424 386.81 132.426 382.29 132.426C377.825 132.426 373.795 133.424 370.201 135.42C366.661 137.416 363.666 140.169 361.216 143.679C358.765 147.189 356.887 151.318 355.58 156.067C354.273 160.747 353.619 165.84 353.619 171.346Z" fill="#000000" fill-rule="nonzero" opacity="1" stroke="none" vectornator:layerName="path"/>
</g>
<g opacity="1" vectornator:layerName="text252">
<path d="M526.499 177.618L495.827 177.618C496.072 175.199 496.562 172.848 497.297 170.566C498.092 168.216 499.133 166.176 500.419 164.448C501.704 162.65 503.266 161.233 505.102 160.196C506.939 159.09 509.051 158.537 511.439 158.537C513.765 158.537 515.846 159.09 517.683 160.196C519.52 161.233 521.081 162.65 522.366 164.448C523.652 166.176 524.631 168.181 525.305 170.463C526.039 172.744 526.437 175.129 526.499 177.618ZM495.827 183.115L532.284 183.115C532.406 179.381 532.1 175.717 531.366 172.122C530.631 168.458 529.407 165.243 527.692 162.478C526.039 159.643 523.866 157.362 521.172 155.633C518.479 153.905 515.234 153.041 511.439 153.041C507.704 153.041 504.459 153.87 501.704 155.529C499.011 157.12 496.807 159.263 495.093 161.959C493.379 164.586 492.093 167.594 491.236 170.981C490.44 174.369 490.042 177.826 490.042 181.352C490.042 185.154 490.44 188.784 491.236 192.24C492.093 195.628 493.379 198.635 495.093 201.263C496.807 203.821 499.011 205.86 501.704 207.381C504.459 208.833 507.704 209.559 511.439 209.559C517.438 209.559 522.06 207.9 525.305 204.581C528.611 201.263 530.876 196.561 532.1 190.477L526.315 190.477C525.397 194.626 523.744 197.944 521.356 200.433C518.969 202.922 515.663 204.166 511.439 204.166C508.684 204.166 506.327 203.51 504.368 202.196C502.409 200.882 500.786 199.223 499.501 197.218C498.215 195.213 497.266 192.966 496.654 190.477C496.103 187.919 495.827 185.465 495.827 183.115Z" fill="#000000" fill-rule="nonzero" opacity="1" stroke="none" vectornator:layerName="path"/>
<path d="M547.689 170.981L553.474 170.981C553.596 166.626 554.821 163.48 557.147 161.544C559.473 159.539 562.473 158.537 566.146 158.537C567.861 158.537 569.452 158.71 570.922 159.055C572.452 159.332 573.768 159.885 574.87 160.715C576.033 161.544 576.921 162.685 577.533 164.137C578.207 165.52 578.544 167.317 578.544 169.529C578.544 170.981 578.36 172.157 577.992 173.055C577.686 173.954 577.227 174.68 576.615 175.233C576.003 175.717 575.237 176.063 574.319 176.27C573.401 176.478 572.329 176.65 571.105 176.789C567.983 177.204 564.891 177.653 561.83 178.137C558.83 178.552 556.106 179.312 553.657 180.418C551.27 181.524 549.341 183.149 547.872 185.292C546.403 187.366 545.668 190.27 545.668 194.003C545.668 196.7 546.066 199.05 546.862 201.055C547.719 202.991 548.852 204.616 550.26 205.929C551.729 207.174 553.412 208.073 555.31 208.626C557.269 209.248 559.351 209.559 561.555 209.559C563.881 209.559 565.871 209.317 567.524 208.833C569.238 208.349 570.738 207.658 572.023 206.759C573.37 205.86 574.564 204.754 575.605 203.44C576.707 202.058 577.778 200.502 578.819 198.774L579.002 198.774C579.002 200.156 579.063 201.435 579.186 202.611C579.369 203.717 579.706 204.685 580.196 205.514C580.686 206.344 581.359 207.001 582.216 207.485C583.135 207.9 584.328 208.107 585.798 208.107C586.593 208.107 587.236 208.073 587.726 208.003C588.277 207.934 588.889 207.831 589.563 207.692L589.563 202.196C589.012 202.473 588.399 202.611 587.726 202.611C585.461 202.611 584.328 201.297 584.328 198.67L584.328 170.255C584.328 166.66 583.808 163.757 582.767 161.544C581.726 159.263 580.38 157.5 578.727 156.255C577.074 155.011 575.206 154.181 573.125 153.767C571.044 153.283 568.962 153.041 566.881 153.041C564.126 153.041 561.616 153.386 559.35 154.078C557.085 154.769 555.096 155.841 553.382 157.292C551.729 158.744 550.412 160.611 549.433 162.892C548.453 165.174 547.872 167.87 547.688 170.981L547.689 170.981ZM578.544 178.863L578.544 187.366C578.544 189.994 578.084 192.344 577.166 194.418C576.309 196.492 575.115 198.255 573.585 199.707C572.115 201.159 570.371 202.265 568.35 203.026C566.33 203.786 564.218 204.166 562.014 204.166C560.667 204.166 559.351 203.924 558.065 203.44C556.78 202.956 555.647 202.265 554.668 201.366C553.688 200.398 552.892 199.292 552.28 198.048C551.729 196.734 551.454 195.248 551.454 193.589C551.454 190.961 552.127 188.956 553.474 187.574C554.882 186.122 556.657 185.016 558.8 184.255C560.943 183.495 563.3 182.942 565.871 182.596C568.503 182.181 571.044 181.732 573.493 181.248C574.289 181.11 575.207 180.868 576.248 180.522C577.288 180.176 577.993 179.623 578.36 178.863L578.544 178.863Z" fill="#000000" fill-rule="nonzero" opacity="1" stroke="none" vectornator:layerName="path"/>
<path d="M604.049 154.596L604.049 208.107L609.835 208.107L609.835 178.24C609.835 175.406 610.11 172.813 610.661 170.463C611.212 168.043 612.039 165.969 613.141 164.241C614.304 162.443 615.773 161.06 617.549 160.092C619.385 159.055 621.528 158.537 623.977 158.537C625.813 158.537 627.374 158.883 628.66 159.574C629.946 160.265 630.956 161.233 631.69 162.478C632.486 163.653 633.037 165.07 633.343 166.729C633.711 168.32 633.894 170.013 633.894 171.811L633.894 208.107L639.68 208.107L639.68 177.826C639.68 175.337 639.864 172.952 640.231 170.67C640.66 168.32 641.364 166.245 642.343 164.448C643.323 162.65 644.639 161.233 646.292 160.196C647.945 159.09 650.026 158.537 652.536 158.537C656.699 158.537 659.607 159.712 661.26 162.063C662.913 164.344 663.74 167.697 663.74 172.122L663.74 208.107L669.525 208.107L669.525 171.811C669.525 159.297 664.29 153.041 653.822 153.041C650.7 153.041 647.761 153.905 645.006 155.633C642.251 157.362 640.17 159.989 638.762 163.515C637.905 159.989 636.19 157.362 633.619 155.633C631.109 153.905 628.293 153.041 625.171 153.041C621.314 153.041 618.13 153.974 615.62 155.841C613.172 157.707 611.182 160.3 609.651 163.618L609.376 163.618L609.376 154.596L604.049 154.596Z" fill="#000000" fill-rule="nonzero" opacity="1" stroke="none" vectornator:layerName="path"/>
</g>
<path d="M394.367 125.561C395.54 124.495 397.888 122.361 400.354 120.19C402.819 118.018 405.402 115.81 407.986 113.789C410.569 111.769 413.152 109.937 416.737 107.841C420.323 105.745 424.909 103.385 430.299 102.282C435.69 101.178 441.881 101.33 446.756 101.968C451.631 102.605 455.188 103.727 458.241 105.288C461.293 106.849 463.842 108.849 466.234 111.417C468.626 113.984 470.861 117.119 472.44 121.361C474.019 125.604 474.94 130.952 475.197 135.981C475.455 141.011 475.047 145.72 473.692 151.813C472.337 157.906 470.034 165.38 466.222 173.416C462.41 181.452 457.089 190.049 453.43 195.504C449.772 200.959 447.777 203.271 445.781 205.583C443.786 207.894 441.79 210.206 439.795 212.518C437.8 214.83 435.804 217.141 433.809 219.453C431.813 221.764 429.817 224.076 429.453 224.137C429.089 224.198 430.356 222.008 431.623 219.818C432.89 217.628 434.157 215.438 435.424 213.248C436.691 211.058 437.958 208.868 439.855 205.295C441.752 201.722 444.28 196.766 446.888 190.738C449.496 184.71 452.184 177.611 454.238 170.492C456.292 163.373 457.71 156.235 458.242 149.837C458.774 143.438 458.419 137.78 457.229 133.027C456.04 128.274 454.016 124.428 451.05 121.369C448.083 118.31 444.174 116.038 440.136 114.712C436.098 113.386 431.931 113.007 428.458 113.164C424.986 113.322 422.208 114.017 419.637 114.693C417.066 115.368 414.703 116.023 411.63 117.247C408.558 118.47 404.778 120.261 401.586 121.92C398.395 123.578 395.794 125.103 394.493 125.865C393.193 126.628 393.193 126.628 394.367 125.561Z" fill="#97003c" fill-rule="nonzero" opacity="1" stroke="#000000" stroke-linecap="butt" stroke-linejoin="miter" stroke-width="1.30153" vectornator:layerName="path"/>
<path d="M462.979 104.108C463.838 104.564 465.555 105.476 467.137 106.706C468.72 107.935 470.17 109.482 470.896 110.255C471.621 111.029 471.621 111.029 472.001 111.578C472.381 112.126 473.141 113.224 473.866 114.342C474.591 115.46 475.281 116.598 475.775 117.638C476.27 118.677 476.57 119.619 476.748 120.179C476.926 120.739 476.983 120.922 477.041 121.104C477.098 121.287 477.155 121.47 477.242 121.743C477.327 122.017 477.442 122.382 477.5 122.565C477.557 122.747 477.557 122.747 478.758 122.527C479.959 122.307 482.349 121.869 484.862 121.331C487.374 120.794 490 120.158 492.427 119.479C494.854 118.8 497.08 118.078 499.7 117.194C502.319 116.31 505.332 115.264 507.84 114.228C510.347 113.193 512.35 112.167 514.599 110.903C516.848 109.64 519.343 108.139 521.346 106.852C523.35 105.565 524.861 104.492 526.292 103.346C527.724 102.201 529.075 100.983 530.06 100.027C531.046 99.0719 531.665 98.3795 532.14 97.8205C532.614 97.2615 532.942 96.8365 533.32 96.3157C533.698 95.7949 534.125 95.1787 534.025 95.0114C533.925 94.8442 533.297 95.1261 532.522 95.5167C531.747 95.9073 530.826 96.4061 529.866 96.8564C528.907 97.3067 527.908 97.7091 526.734 98.1548C525.56 98.6004 524.209 99.09 522.039 99.7683C519.868 100.447 516.877 101.314 513.954 102.034C511.032 102.755 508.179 103.328 505.2 103.776C502.222 104.224 499.117 104.548 496.568 104.704C494.019 104.86 492.025 104.849 489.768 104.823C487.512 104.796 484.993 104.755 482.787 104.693C480.581 104.631 478.689 104.548 476.778 104.434C474.868 104.32 472.939 104.173 470.493 104.038C468.047 103.902 465.084 103.778 463.603 103.715C462.121 103.653 462.121 103.651 462.98 104.108L462.979 104.108Z" fill="#97003c" fill-rule="nonzero" opacity="1" stroke="#000000" stroke-linecap="butt" stroke-linejoin="round" stroke-width="1.30153" vectornator:layerName="path"/>
<path d="M469.844 176.03C469.578 176.568 469.047 177.646 468.574 178.589C468.101 179.532 467.687 180.341 467.254 181.119C466.822 181.897 466.371 182.644 465.836 183.512C465.302 184.38 464.685 185.369 464.073 186.336C463.462 187.303 462.856 188.25 462.236 189.208C461.617 190.166 460.986 191.135 460.354 192.105L462.041 194.456C462.992 195.609 463.921 196.735 464.862 197.876C465.803 199.017 466.671 200.069 467.559 201.146L470.724 204.419C471.835 205.581 472.945 206.743 474.202 207.897C475.459 209.052 476.861 210.199 478.132 211.251C479.403 212.302 480.541 213.255 481.963 214.35C483.385 215.445 485.092 216.682 486.765 217.808C488.437 218.934 490.077 219.951 491.435 220.727C492.793 221.503 493.868 222.038 495.31 222.7C496.751 223.361 498.558 224.149 498.868 224.066C499.179 223.983 497.991 223.029 496.821 222.049C495.652 221.069 494.502 220.064 493.434 219.072C492.367 218.08 491.381 217.1 490.364 216.003C489.348 214.906 488.3 213.692 487.022 212.144C485.744 210.597 484.235 208.716 482.748 206.68C481.26 204.645 479.791 202.452 478.472 200.377C477.153 198.302 475.984 196.347 474.992 194.395C473.999 192.443 473.185 190.499 472.491 188.574C471.798 186.648 471.228 184.747 470.85 183.083C470.473 181.42 470.288 179.995 470.236 178.684C470.183 177.372 470.261 176.174 470.342 174.976L470.342 174.976C470.264 175.148 470.187 175.32 470.148 175.406C470.11 175.491 470.109 175.491 469.844 176.03Z" fill="#b2b2b2" fill-rule="nonzero" opacity="1" stroke="#000000" stroke-linecap="butt" stroke-linejoin="miter" stroke-width="1.30153" vectornator:layerName="path"/>
<path d="M445.783 82.1454C445.783 76.2803 450.722 71.5258 456.816 71.5258C462.909 71.5258 467.849 76.2803 467.849 82.1454C467.849 88.0104 462.909 92.765 456.816 92.765C450.722 92.765 445.783 88.0104 445.783 82.1454Z" fill="#b2b2b2" fill-rule="nonzero" opacity="1" stroke="#000000" stroke-linecap="butt" stroke-linejoin="miter" stroke-width="1.30153" vectornator:layerName="ellipse"/>
<g opacity="0" vectornator:layerName="text266">
<path d="M527.481 219.733L522.532 242.681L537.381 242.681L537.83 240.817L525.135 240.817L529.667 219.733L527.481 219.733Z" fill="#000000" fill-rule="nonzero" opacity="1" stroke="none" vectornator:layerName="path"/>
<path d="M550.236 231.046L552.261 231.046C552.368 230.361 552.571 229.782 552.871 229.311C553.193 228.818 553.589 228.432 554.06 228.154C554.532 227.854 555.057 227.639 555.635 227.511C556.214 227.382 556.825 227.318 557.467 227.318C557.853 227.318 558.249 227.35 558.657 227.414C559.085 227.478 559.46 227.596 559.782 227.768C560.124 227.939 560.403 228.185 560.617 228.507C560.853 228.807 560.971 229.203 560.971 229.696C560.971 230.789 560.799 231.56 560.456 232.01C560.135 232.46 559.642 232.771 558.978 232.942C558.335 233.114 557.564 233.199 556.664 233.199C555.785 233.178 554.8 233.253 553.707 233.424C552.957 233.553 552.239 233.735 551.554 233.971C550.868 234.185 550.257 234.485 549.722 234.871C549.186 235.257 548.757 235.75 548.436 236.349C548.136 236.949 547.986 237.689 547.986 238.567C547.986 239.381 548.115 240.078 548.372 240.656C548.65 241.235 549.015 241.706 549.464 242.071C549.936 242.435 550.493 242.703 551.136 242.874C551.779 243.045 552.486 243.131 553.257 243.131C554.414 243.131 555.518 242.874 556.568 242.36C557.617 241.824 558.432 241.074 559.01 240.11L559.075 240.175C559.053 240.325 559.032 240.475 559.01 240.625C559.01 240.775 559.01 240.925 559.01 241.075C559.053 242.253 559.642 242.843 560.778 242.843C561.356 242.843 561.914 242.789 562.449 242.682L562.739 241.107C562.589 241.129 562.449 241.15 562.321 241.172C562.214 241.172 562.085 241.172 561.935 241.172C561.699 241.172 561.464 241.14 561.228 241.076C560.992 240.99 560.874 240.797 560.874 240.497C560.874 240.24 560.896 239.983 560.939 239.726C560.982 239.469 561.046 239.137 561.132 238.73C561.217 238.323 561.324 237.819 561.453 237.219C561.603 236.598 561.774 235.826 561.967 234.905C562.053 234.54 562.149 234.123 562.256 233.651C562.385 233.159 562.503 232.666 562.61 232.173C562.717 231.659 562.803 231.155 562.867 230.662C562.953 230.17 562.996 229.72 562.996 229.312C562.996 228.562 562.803 227.952 562.417 227.48C562.032 227.009 561.549 226.634 560.971 226.355C560.392 226.077 559.76 225.884 559.075 225.777C558.41 225.67 557.8 225.616 557.243 225.616C556.364 225.616 555.528 225.723 554.736 225.938C553.943 226.152 553.236 226.484 552.614 226.934C551.993 227.363 551.468 227.92 551.039 228.605C550.632 229.291 550.364 230.105 550.236 231.048L550.236 231.046ZM560.264 233.81L559.621 236.606C559.299 238.085 558.635 239.263 557.628 240.142C556.621 241.02 555.303 241.46 553.675 241.46C553.203 241.46 552.743 241.406 552.293 241.299C551.843 241.192 551.446 241.02 551.104 240.785C550.761 240.528 550.482 240.217 550.268 239.853C550.075 239.467 549.979 239.006 549.979 238.471C549.979 237.592 550.204 236.917 550.654 236.446C551.104 235.953 551.661 235.589 552.325 235.353C552.989 235.096 553.696 234.935 554.446 234.871C555.218 234.785 555.914 234.721 556.535 234.678C556.792 234.657 557.092 234.635 557.435 234.613C557.799 234.592 558.153 234.549 558.496 234.485C558.839 234.421 559.16 234.335 559.46 234.228C559.781 234.1 560.028 233.939 560.199 233.746L560.264 233.81Z" fill="#000000" fill-rule="nonzero" opacity="1" stroke="none" vectornator:layerName="path"/>
<path d="M576.957 226.097L572.104 248.788L574.097 248.788L576.121 239.371L576.186 239.371C576.293 240.035 576.507 240.613 576.829 241.106C577.15 241.578 577.546 241.963 578.018 242.263C578.489 242.563 579.025 242.777 579.625 242.906C580.225 243.056 580.846 243.131 581.489 243.131C582.882 243.131 584.135 242.81 585.25 242.167C586.364 241.524 587.317 240.699 588.11 239.692C588.903 238.664 589.503 237.517 589.91 236.253C590.338 234.968 590.553 233.682 590.553 232.396C590.553 231.389 590.424 230.468 590.167 229.632C589.91 228.797 589.513 228.09 588.978 227.511C588.464 226.911 587.81 226.45 587.017 226.129C586.246 225.786 585.325 225.615 584.253 225.615C582.796 225.615 581.596 225.926 580.653 226.547C579.732 227.147 578.918 227.993 578.211 229.086L578.146 229.086L578.789 226.097L576.957 226.097ZM584.06 227.318C585.581 227.318 586.706 227.789 587.435 228.732C588.163 229.675 588.528 230.853 588.528 232.267C588.528 233.275 588.378 234.325 588.078 235.417C587.778 236.489 587.328 237.474 586.728 238.374C586.149 239.274 585.41 240.013 584.51 240.592C583.632 241.17 582.614 241.46 581.457 241.46C579.978 241.46 578.832 241.031 578.018 240.174C577.225 239.317 576.829 238.149 576.829 236.671C576.829 235.642 576.989 234.582 577.311 233.489C577.632 232.375 578.093 231.368 578.693 230.468C579.314 229.546 580.075 228.796 580.975 228.218C581.875 227.618 582.903 227.318 584.06 227.318Z" fill="#000000" fill-rule="nonzero" opacity="1" stroke="none" vectornator:layerName="path"/>
<path d="M604.022 226.097L599.169 248.788L601.161 248.788L603.186 239.371L603.251 239.371C603.358 240.035 603.572 240.613 603.894 241.106C604.215 241.578 604.611 241.963 605.083 242.263C605.554 242.563 606.09 242.777 606.69 242.906C607.29 243.056 607.911 243.131 608.554 243.131C609.947 243.131 611.2 242.81 612.314 242.167C613.429 241.524 614.382 240.699 615.175 239.692C615.968 238.664 616.568 237.517 616.975 236.253C617.403 234.968 617.618 233.682 617.618 232.396C617.618 231.389 617.489 230.468 617.232 229.632C616.975 228.797 616.578 228.09 616.043 227.511C615.528 226.911 614.875 226.45 614.082 226.129C613.311 225.786 612.389 225.615 611.318 225.615C609.861 225.615 608.661 225.926 607.718 226.547C606.797 227.147 605.983 227.993 605.276 229.086L605.211 229.086L605.854 226.097L604.022 226.097ZM611.125 227.318C612.646 227.318 613.771 227.789 614.5 228.732C615.228 229.675 615.593 230.853 615.593 232.267C615.593 233.275 615.443 234.325 615.143 235.417C614.843 236.489 614.393 237.474 613.793 238.374C613.214 239.274 612.475 240.013 611.575 240.592C610.696 241.17 609.679 241.46 608.522 241.46C607.043 241.46 605.897 241.031 605.083 240.174C604.29 239.317 603.893 238.149 603.893 236.671C603.893 235.642 604.054 234.582 604.375 233.489C604.697 232.375 605.158 231.368 605.758 230.468C606.379 229.546 607.14 228.796 608.04 228.218C608.939 227.618 609.968 227.318 611.125 227.318Z" fill="#000000" fill-rule="nonzero" opacity="1" stroke="none" vectornator:layerName="path"/>
<path d="M641.34 233.232L630.508 233.232C630.68 232.46 630.948 231.721 631.312 231.014C631.676 230.307 632.126 229.686 632.662 229.15C633.219 228.593 633.84 228.154 634.526 227.832C635.233 227.489 636.004 227.318 636.84 227.318C638.254 227.318 639.358 227.736 640.15 228.571C640.965 229.407 641.372 230.532 641.372 231.946C641.372 232.161 641.361 232.375 641.34 232.589C641.34 232.782 641.34 232.996 641.34 233.232L641.34 233.232ZM630.251 234.935L643.236 234.935C643.3 234.442 643.343 233.96 643.365 233.489C643.386 233.017 643.396 232.546 643.396 232.075C643.396 231.11 643.257 230.232 642.979 229.439C642.7 228.646 642.282 227.971 641.725 227.414C641.189 226.836 640.536 226.397 639.764 226.097C638.993 225.775 638.104 225.614 637.097 225.614C635.683 225.614 634.418 225.914 633.304 226.514C632.19 227.114 631.247 227.907 630.476 228.893C629.704 229.878 629.115 231.003 628.708 232.267C628.322 233.51 628.13 234.796 628.13 236.124C628.13 238.31 628.697 240.024 629.833 241.267C630.99 242.51 632.672 243.131 634.879 243.131C636.872 243.131 638.49 242.638 639.732 241.653C640.975 240.667 641.875 239.231 642.432 237.346L640.407 237.346C640.022 238.567 639.357 239.563 638.415 240.335C637.472 241.085 636.325 241.46 634.976 241.46C634.161 241.46 633.444 241.331 632.822 241.074C632.222 240.795 631.719 240.431 631.312 239.981C630.926 239.51 630.637 238.953 630.444 238.31C630.251 237.667 630.154 236.971 630.154 236.221C630.154 235.749 630.187 235.321 630.251 234.935L630.251 234.935Z" fill="#000000" fill-rule="nonzero" opacity="1" stroke="none" vectornator:layerName="path"/>
<path d="M656.201 226.097L652.666 242.681L654.658 242.681L656.523 234.003C656.694 233.232 656.94 232.482 657.262 231.753C657.605 231.025 658.033 230.382 658.547 229.825C659.062 229.246 659.662 228.786 660.347 228.443C661.054 228.1 661.858 227.918 662.758 227.896C662.951 227.896 663.143 227.907 663.336 227.929C663.529 227.929 663.722 227.929 663.915 227.929L664.365 225.904C664.279 225.882 664.193 225.871 664.108 225.871C664.022 225.871 663.926 225.871 663.818 225.871L663.272 225.871C661.794 225.871 660.583 226.246 659.64 226.996C658.697 227.746 657.905 228.721 657.262 229.921L657.197 229.921L658.033 226.096L656.201 226.097Z" fill="#000000" fill-rule="nonzero" opacity="1" stroke="none" vectornator:layerName="path"/>
<path d="M673.696 237.281L671.703 237.281C671.66 238.331 671.81 239.231 672.153 239.981C672.496 240.71 672.956 241.31 673.535 241.781C674.113 242.253 674.778 242.595 675.528 242.81C676.299 243.024 677.092 243.131 677.906 243.131C678.699 243.131 679.492 243.045 680.284 242.874C681.077 242.703 681.795 242.424 682.438 242.038C683.081 241.631 683.595 241.106 683.981 240.463C684.388 239.821 684.591 239.028 684.591 238.085C684.591 237.314 684.409 236.671 684.045 236.157C683.702 235.642 683.263 235.203 682.727 234.839C682.213 234.475 681.634 234.175 680.991 233.939C680.37 233.682 679.77 233.435 679.192 233.2C678.72 233.007 678.27 232.814 677.842 232.621C677.435 232.429 677.07 232.214 676.749 231.978C676.428 231.743 676.17 231.475 675.978 231.175C675.785 230.875 675.688 230.532 675.688 230.146C675.688 229.568 675.817 229.096 676.074 228.732C676.353 228.368 676.685 228.089 677.07 227.896C677.477 227.682 677.917 227.532 678.388 227.447C678.881 227.361 679.352 227.318 679.802 227.318C680.359 227.318 680.884 227.393 681.377 227.543C681.87 227.671 682.288 227.886 682.631 228.186C682.995 228.486 683.273 228.861 683.466 229.311C683.659 229.761 683.734 230.307 683.691 230.95L685.716 230.95C685.737 229.986 685.598 229.172 685.298 228.507C685.02 227.822 684.613 227.265 684.077 226.836C683.563 226.407 682.941 226.097 682.213 225.904C681.484 225.711 680.681 225.615 679.802 225.615C679.138 225.615 678.442 225.701 677.713 225.872C676.985 226.043 676.32 226.311 675.72 226.676C675.12 227.04 674.628 227.511 674.242 228.09C673.856 228.647 673.663 229.333 673.663 230.147C673.663 230.832 673.792 231.422 674.049 231.915C674.306 232.386 674.638 232.804 675.045 233.168C675.474 233.511 675.956 233.811 676.492 234.068C677.027 234.303 677.563 234.528 678.099 234.743C678.635 234.957 679.17 235.172 679.706 235.386C680.242 235.578 680.713 235.814 681.12 236.093C681.549 236.35 681.891 236.661 682.149 237.025C682.427 237.389 682.566 237.85 682.566 238.407C682.566 238.943 682.427 239.403 682.149 239.789C681.891 240.175 681.559 240.496 681.152 240.753C680.745 240.989 680.295 241.171 679.802 241.3C679.309 241.407 678.838 241.461 678.388 241.461C677.81 241.461 677.231 241.396 676.653 241.268C676.095 241.14 675.592 240.915 675.142 240.593C674.713 240.272 674.36 239.843 674.081 239.307C673.824 238.772 673.696 238.097 673.696 237.283L673.696 237.281Z" fill="#000000" fill-rule="nonzero" opacity="1" stroke="none" vectornator:layerName="path"/>
<path d="M709.832 242.681L714.75 219.733L712.725 219.733L710.732 229.214L710.668 229.214C710.303 227.907 709.639 226.986 708.675 226.45C707.711 225.893 706.575 225.614 705.268 225.614C703.875 225.614 702.622 225.936 701.508 226.579C700.393 227.221 699.44 228.057 698.647 229.086C697.854 230.114 697.244 231.271 696.815 232.557C696.408 233.842 696.204 235.117 696.204 236.382C696.204 238.417 696.719 240.056 697.747 241.299C698.797 242.52 700.383 243.131 702.504 243.131C703.961 243.131 705.15 242.831 706.072 242.231C707.014 241.631 707.839 240.785 708.546 239.692L708.611 239.692L707.872 242.681L709.832 242.681ZM702.697 241.46C701.176 241.46 700.051 240.988 699.322 240.046C698.594 239.103 698.229 237.924 698.229 236.51C698.229 235.503 698.379 234.464 698.679 233.392C698.979 232.3 699.419 231.303 699.997 230.403C700.597 229.503 701.336 228.764 702.215 228.186C703.115 227.607 704.143 227.318 705.3 227.318C706.779 227.318 707.914 227.746 708.707 228.603C709.521 229.461 709.929 230.628 709.929 232.107C709.929 233.135 709.768 234.207 709.446 235.321C709.125 236.414 708.654 237.421 708.032 238.342C707.432 239.242 706.682 239.992 705.782 240.592C704.882 241.17 703.854 241.46 702.697 241.46Z" fill="#000000" fill-rule="nonzero" opacity="1" stroke="none" vectornator:layerName="path"/>
<path d="M730.276 241.46C728.583 241.46 727.33 240.967 726.516 239.981C725.701 238.974 725.294 237.667 725.294 236.06C725.294 235.096 725.444 234.1 725.744 233.071C726.044 232.021 726.483 231.078 727.062 230.243C727.64 229.386 728.358 228.689 729.215 228.154C730.072 227.596 731.058 227.318 732.172 227.318C733.801 227.318 735.022 227.8 735.836 228.764C736.651 229.728 737.058 230.982 737.058 232.525C737.058 233.489 736.908 234.496 736.608 235.546C736.329 236.596 735.901 237.56 735.322 238.439C734.765 239.317 734.058 240.046 733.201 240.624C732.365 241.181 731.39 241.46 730.276 241.46ZM732.526 225.614C731.047 225.614 729.73 225.914 728.573 226.514C727.437 227.114 726.473 227.907 725.68 228.893C724.887 229.878 724.287 231.014 723.88 232.3C723.473 233.585 723.269 234.903 723.269 236.253C723.269 238.353 723.837 240.024 724.973 241.267C726.108 242.51 727.748 243.131 729.89 243.131C731.433 243.131 732.772 242.82 733.908 242.199C735.065 241.578 736.018 240.753 736.768 239.724C737.54 238.696 738.118 237.517 738.504 236.189C738.89 234.86 739.083 233.5 739.083 232.107C739.083 231.078 738.922 230.168 738.6 229.375C738.279 228.561 737.829 227.875 737.251 227.318C736.672 226.761 735.976 226.343 735.161 226.064C734.369 225.765 733.49 225.615 732.526 225.615L732.526 225.614Z" fill="#000000" fill-rule="nonzero" opacity="1" stroke="none" vectornator:layerName="path"/>
<path d="M752.533 226.097L748.998 242.681L750.991 242.681L752.855 234.003C753.026 233.232 753.273 232.482 753.594 231.753C753.937 231.025 754.365 230.382 754.88 229.825C755.394 229.246 755.994 228.786 756.679 228.443C757.387 228.1 758.19 227.918 759.09 227.896C759.283 227.896 759.476 227.907 759.669 227.929C759.861 227.929 760.054 227.929 760.247 227.929L760.697 225.904C760.611 225.882 760.526 225.871 760.44 225.871C760.354 225.871 760.258 225.871 760.151 225.871L759.604 225.871C758.126 225.871 756.915 226.246 755.972 226.996C755.03 227.746 754.237 228.721 753.594 229.921L753.53 229.921L754.365 226.096L752.533 226.097Z" fill="#000000" fill-rule="nonzero" opacity="1" stroke="none" vectornator:layerName="path"/>
<path d="M777.163 227.8L777.549 226.097L774.27 226.097L774.752 223.782C774.945 222.968 775.245 222.379 775.652 222.015C776.06 221.629 776.734 221.436 777.677 221.436C777.892 221.436 778.095 221.458 778.288 221.501C778.502 221.545 778.717 221.587 778.931 221.629L779.284 219.958C778.942 219.851 778.599 219.787 778.256 219.766C777.913 219.744 777.559 219.733 777.195 219.733C775.824 219.733 774.806 220.087 774.142 220.794C773.478 221.501 773.017 222.465 772.76 223.686L772.246 226.097L769.385 226.097L768.999 227.8L771.892 227.8L768.614 242.681L770.638 242.681L773.917 227.8L777.163 227.8Z" fill="#000000" fill-rule="nonzero" opacity="1" stroke="none" vectornator:layerName="path"/>
</g>
</g>
<g fill="#000000" opacity="1" stroke="none" vectornator:layerName="Text 2">
<path d="M527.324 230.977L529.34 221.633L536.028 221.633C536.732 221.633 537.366 221.702 537.932 221.841C538.497 221.98 538.982 222.209 539.388 222.529C539.793 222.849 540.108 223.27 540.332 223.793C540.556 224.316 540.668 224.961 540.668 225.729C540.668 226.561 540.524 227.302 540.236 227.953C539.948 228.604 539.548 229.153 539.036 229.601C538.524 230.049 537.926 230.39 537.244 230.625C536.561 230.86 535.825 230.977 535.036 230.977L527.324 230.977ZM527.548 219.777L522.62 242.625L524.796 242.625L526.908 232.833L534.972 232.833C536.124 232.833 537.18 232.668 538.14 232.337C539.1 232.006 539.926 231.526 540.62 230.897C541.313 230.268 541.857 229.489 542.252 228.561C542.646 227.633 542.844 226.582 542.844 225.409C542.844 224.534 542.689 223.745 542.38 223.041C542.07 222.337 541.644 221.745 541.1 221.265C540.556 220.785 539.916 220.417 539.18 220.161C538.444 219.905 537.638 219.777 536.764 219.777L527.548 219.777Z"/>
<path d="M558.704 241.409C557.018 241.409 555.77 240.913 554.96 239.921C554.149 238.929 553.744 237.633 553.744 236.033C553.744 235.073 553.893 234.076 554.192 233.041C554.49 232.006 554.928 231.068 555.504 230.225C556.08 229.382 556.794 228.689 557.648 228.145C558.501 227.601 559.482 227.329 560.592 227.329C562.213 227.329 563.429 227.809 564.24 228.769C565.05 229.729 565.456 230.977 565.456 232.513C565.456 233.473 565.312 234.476 565.024 235.521C564.736 236.566 564.309 237.526 563.744 238.401C563.178 239.276 562.474 239.996 561.632 240.561C560.789 241.126 559.813 241.409 558.704 241.409ZM560.944 225.633C559.472 225.633 558.165 225.932 557.024 226.529C555.882 227.126 554.917 227.916 554.128 228.897C553.338 229.878 552.741 231.009 552.336 232.289C551.93 233.569 551.728 234.881 551.728 236.225C551.728 238.316 552.293 239.98 553.424 241.217C554.554 242.454 556.186 243.073 558.32 243.073C559.856 243.073 561.194 242.764 562.336 242.145C563.477 241.526 564.426 240.705 565.184 239.681C565.941 238.657 566.512 237.484 566.896 236.161C567.28 234.838 567.472 233.484 567.472 232.097C567.472 231.073 567.312 230.161 566.992 229.361C566.672 228.561 566.224 227.884 565.648 227.329C565.072 226.774 564.384 226.353 563.584 226.065C562.784 225.777 561.904 225.633 560.944 225.633Z"/>
<path d="M582.308 219.777L577.412 242.625L579.396 242.625L584.324 219.777L582.308 219.777Z"/>
<path d="M596.888 219.777L591.992 242.625L593.976 242.625L598.904 219.777L596.888 219.777Z"/>
<path d="M608.876 231.041L610.892 231.041C610.998 230.358 611.206 229.777 611.516 229.297C611.825 228.817 612.214 228.433 612.684 228.145C613.153 227.857 613.676 227.649 614.252 227.521C614.828 227.393 615.436 227.329 616.076 227.329C616.46 227.329 616.86 227.361 617.276 227.425C617.692 227.489 618.065 227.606 618.396 227.777C618.726 227.948 619.004 228.188 619.228 228.497C619.452 228.806 619.564 229.206 619.564 229.697C619.564 230.785 619.398 231.553 619.068 232.001C618.737 232.449 618.241 232.758 617.58 232.929C616.94 233.1 616.177 233.18 615.292 233.169C614.406 233.158 613.42 233.238 612.332 233.409C611.585 233.537 610.87 233.713 610.188 233.937C609.505 234.161 608.897 234.465 608.364 234.849C607.83 235.233 607.409 235.724 607.1 236.321C606.79 236.918 606.636 237.654 606.636 238.529C606.636 239.34 606.769 240.033 607.036 240.609C607.302 241.185 607.665 241.654 608.124 242.017C608.582 242.38 609.132 242.646 609.772 242.817C610.412 242.988 611.116 243.073 611.884 243.073C613.036 243.073 614.134 242.812 615.18 242.289C616.225 241.766 617.036 241.025 617.612 240.065L617.676 240.129C617.654 240.278 617.638 240.428 617.628 240.577C617.617 240.726 617.612 240.876 617.612 241.025C617.654 242.198 618.241 242.785 619.372 242.785C619.948 242.785 620.502 242.732 621.036 242.625L621.324 241.057C621.174 241.078 621.041 241.094 620.924 241.105C620.806 241.116 620.673 241.121 620.524 241.121C620.289 241.121 620.054 241.084 619.82 241.009C619.585 240.934 619.468 240.748 619.468 240.449C619.468 240.193 619.489 239.937 619.532 239.681C619.574 239.425 619.638 239.094 619.724 238.689C619.809 238.284 619.921 237.777 620.06 237.169C620.198 236.561 620.364 235.798 620.556 234.881C620.641 234.518 620.742 234.097 620.86 233.617C620.977 233.137 621.089 232.646 621.196 232.145C621.302 231.644 621.393 231.148 621.468 230.657C621.542 230.166 621.58 229.718 621.58 229.313C621.58 228.566 621.388 227.958 621.004 227.489C620.62 227.02 620.14 226.646 619.564 226.369C618.988 226.092 618.364 225.9 617.692 225.793C617.02 225.686 616.406 225.633 615.852 225.633C614.977 225.633 614.145 225.74 613.356 225.953C612.566 226.166 611.862 226.492 611.244 226.929C610.625 227.366 610.108 227.926 609.692 228.609C609.276 229.292 609.004 230.102 608.876 231.041ZM618.86 233.793L618.22 236.577C617.9 238.049 617.238 239.222 616.236 240.097C615.233 240.972 613.921 241.409 612.3 241.409C611.83 241.409 611.372 241.356 610.924 241.249C610.476 241.142 610.081 240.966 609.74 240.721C609.398 240.476 609.126 240.166 608.924 239.793C608.721 239.42 608.62 238.966 608.62 238.433C608.62 237.558 608.844 236.881 609.292 236.401C609.74 235.921 610.294 235.558 610.956 235.313C611.617 235.068 612.326 234.908 613.084 234.833C613.841 234.758 614.529 234.7 615.148 234.657C615.404 234.636 615.708 234.614 616.06 234.593C616.412 234.572 616.758 234.529 617.1 234.465C617.441 234.401 617.766 234.31 618.076 234.193C618.385 234.076 618.625 233.921 618.796 233.729L618.86 233.793Z"/>
<path d="M635.36 226.113L631.84 242.625L633.824 242.625L635.648 234.145C635.861 233.1 636.181 232.156 636.608 231.313C637.034 230.47 637.536 229.756 638.112 229.169C638.688 228.582 639.317 228.129 640 227.809C640.682 227.489 641.386 227.329 642.112 227.329C642.56 227.329 642.992 227.382 643.408 227.489C643.824 227.596 644.192 227.766 644.512 228.001C644.832 228.236 645.088 228.54 645.28 228.913C645.472 229.286 645.568 229.75 645.568 230.305C645.568 230.582 645.546 230.865 645.504 231.153C645.461 231.441 645.408 231.713 645.344 231.969L643.04 242.625L645.056 242.625L647.328 232.033C647.498 231.18 647.584 230.529 647.584 230.081C647.584 229.292 647.461 228.614 647.216 228.049C646.97 227.484 646.624 227.025 646.176 226.673C645.728 226.321 645.2 226.06 644.592 225.889C643.984 225.718 643.317 225.633 642.592 225.633C641.354 225.633 640.218 225.969 639.184 226.641C638.149 227.313 637.322 228.14 636.704 229.121L636.64 229.121L637.216 226.113L635.36 226.113Z"/>
<path d="M659.38 226.113L658.996 227.809L661.972 227.809L659.7 238.753C659.614 239.116 659.556 239.446 659.524 239.745C659.492 240.044 659.476 240.278 659.476 240.449C659.476 240.94 659.561 241.34 659.732 241.649C659.902 241.958 660.132 242.198 660.42 242.369C660.708 242.54 661.033 242.652 661.396 242.705C661.758 242.758 662.132 242.785 662.516 242.785C662.857 242.785 663.198 242.774 663.54 242.753C663.881 242.732 664.222 242.7 664.564 242.657L664.916 240.929C664.126 241.057 663.337 241.121 662.548 241.121C662.164 241.121 661.892 241.004 661.732 240.769C661.572 240.534 661.492 240.268 661.492 239.969C661.492 239.713 661.508 239.484 661.54 239.281C661.572 239.078 661.63 238.785 661.716 238.401L663.988 227.809L667.348 227.809L667.668 226.113L664.372 226.113L665.428 221.121L663.412 221.121L662.356 226.113L659.38 226.113Z"/>
<path d="M689.736 233.217L678.952 233.217C679.122 232.449 679.389 231.713 679.752 231.009C680.114 230.305 680.568 229.681 681.112 229.137C681.656 228.593 682.274 228.156 682.968 227.825C683.661 227.494 684.424 227.329 685.256 227.329C686.664 227.329 687.768 227.745 688.568 228.577C689.368 229.409 689.768 230.529 689.768 231.937C689.768 232.15 689.762 232.358 689.752 232.561C689.741 232.764 689.736 232.982 689.736 233.217ZM678.696 234.913L691.624 234.913C691.688 234.422 691.73 233.942 691.752 233.473C691.773 233.004 691.784 232.534 691.784 232.065C691.784 231.105 691.645 230.23 691.368 229.441C691.09 228.652 690.68 227.974 690.136 227.409C689.592 226.844 688.936 226.406 688.168 226.097C687.4 225.788 686.514 225.633 685.512 225.633C684.104 225.633 682.845 225.932 681.736 226.529C680.626 227.126 679.688 227.916 678.92 228.897C678.152 229.878 677.57 230.993 677.176 232.241C676.781 233.489 676.584 234.774 676.584 236.097C676.584 238.273 677.154 239.98 678.296 241.217C679.437 242.454 681.106 243.073 683.304 243.073C685.288 243.073 686.898 242.582 688.136 241.601C689.373 240.62 690.269 239.19 690.824 237.313L688.808 237.313C688.424 238.529 687.762 239.516 686.824 240.273C685.885 241.03 684.744 241.409 683.4 241.409C682.589 241.409 681.88 241.276 681.272 241.009C680.664 240.742 680.162 240.38 679.768 239.921C679.373 239.462 679.08 238.913 678.888 238.273C678.696 237.633 678.6 236.94 678.6 236.193C678.6 235.724 678.632 235.297 678.696 234.913Z"/>
<path d="M704.604 226.113L701.084 242.625L703.068 242.625L704.892 234.145C705.105 233.1 705.425 232.156 705.852 231.313C706.278 230.47 706.78 229.756 707.356 229.169C707.932 228.582 708.561 228.129 709.244 227.809C709.926 227.489 710.63 227.329 711.356 227.329C711.804 227.329 712.236 227.382 712.652 227.489C713.068 227.596 713.436 227.766 713.756 228.001C714.076 228.236 714.332 228.54 714.524 228.913C714.716 229.286 714.812 229.75 714.812 230.305C714.812 230.582 714.79 230.865 714.748 231.153C714.705 231.441 714.652 231.713 714.588 231.969L712.284 242.625L714.3 242.625L716.572 232.033C716.742 231.18 716.828 230.529 716.828 230.081C716.828 229.292 716.705 228.614 716.46 228.049C716.214 227.484 715.868 227.025 715.42 226.673C714.972 226.321 714.444 226.06 713.836 225.889C713.228 225.718 712.561 225.633 711.836 225.633C710.598 225.633 709.462 225.969 708.428 226.641C707.393 227.313 706.566 228.14 705.948 229.121L705.884 229.121L706.46 226.113L704.604 226.113Z"/>
</g>
</g>
</svg>
